<svg version="1.1" id="Layer_1" xmlns="http://www.w3.org/2000/svg" xmlns:xlink="http://www.w3.org/1999/xlink" x="0px" y="0px"
	 width="100%" viewBox="0 0 100 100" enable-background="new 0 0 100 100" xml:space="preserve">
<path fill="#000000" opacity="1.000000" stroke="none" 
	d="
M59.000000,101.000000 
	C39.333336,101.000000 20.166674,101.000000 1.000008,101.000000 
	C1.000005,67.666679 1.000005,34.333351 1.000003,1.000021 
	C34.333317,1.000014 67.666634,1.000014 100.999969,1.000007 
	C100.999977,34.333313 100.999977,67.666626 100.999985,100.999969 
	C87.166664,101.000000 73.333336,101.000000 59.000000,101.000000 
M71.995636,36.044437 
	C71.366508,34.346409 70.737381,32.648380 70.016388,30.174562 
	C68.532104,24.619961 65.585022,20.286924 59.355595,17.770123 
	C55.568653,15.902202 51.781715,14.034280 47.073723,12.037946 
	C42.714233,12.080795 38.354740,12.123645 33.108303,12.035738 
	C24.578777,11.151170 17.459246,14.809592 11.573539,20.164984 
	C4.718272,26.402576 2.822248,34.859386 4.026920,44.859127 
	C2.785158,50.548672 6.335774,54.532623 9.581421,59.179371 
	C11.016194,60.804401 12.450967,62.429428 13.969631,64.855011 
	C13.368278,67.568024 12.766924,70.281036 12.042706,73.799164 
	C13.819247,76.788643 15.523923,76.878845 18.722275,74.020195 
	C19.418053,73.679474 20.113831,73.338760 21.263464,72.362114 
	C23.421246,71.575562 25.543097,70.261070 27.744213,70.111259 
	C32.473289,69.789406 37.243221,70.067795 42.006672,70.836426 
	C43.641289,72.571754 45.275906,74.307091 47.022919,76.762184 
	C48.672138,78.205521 50.321362,79.648849 52.260956,81.730309 
	C54.505993,82.757080 56.751030,83.783844 59.886929,84.962784 
	C62.594032,84.916298 65.301132,84.869820 68.919739,84.987297 
	C72.928963,85.039452 76.938187,85.091606 80.998260,85.940979 
	C84.035011,87.193604 87.071754,88.446236 90.108505,89.698860 
	C90.521698,89.268715 90.934891,88.838562 91.348083,88.408417 
	C90.838776,85.213776 90.329475,82.019135 89.789215,78.630348 
	C91.859253,76.097961 94.354332,73.045586 96.990616,69.067726 
	C96.995491,64.497322 97.160896,59.918262 96.915131,55.361378 
	C96.833008,53.838741 95.699928,52.372780 95.005096,50.164974 
	C93.687248,48.401337 92.369392,46.637699 90.805679,44.255753 
	C89.218285,43.132561 87.630890,42.009369 85.753395,40.226830 
	C83.167381,39.205719 80.581360,38.184605 77.148964,37.016003 
	C75.434021,36.959442 73.719078,36.902882 71.995636,36.044437 
z"/>
<path fill="#2AB474" opacity="1.000000" stroke="none" 
	d="
M8.999865,58.832085 
	C6.335774,54.532623 2.785158,50.548672 4.443033,44.487617 
	C6.686274,43.876583 9.038770,44.273705 10.243307,43.279716 
	C14.056102,40.133362 17.439730,36.466934 21.277994,33.152855 
	C23.380404,33.822395 25.448692,35.103767 26.925219,34.611217 
	C28.052601,34.235130 28.430561,31.612497 29.502298,29.979668 
	C37.738277,25.900856 44.477219,20.674002 47.994774,12.166359 
	C51.781715,14.034280 55.568653,15.902202 59.618572,18.305838 
	C57.582878,21.921412 55.284206,25.001270 52.595352,28.058205 
	C50.476643,28.386152 48.748104,28.737022 46.815125,28.863350 
	C45.164406,29.501940 43.550385,30.172010 42.298931,31.259365 
	C33.813961,38.631756 25.465729,46.162422 16.933903,53.479393 
	C14.528330,55.542431 11.657371,57.062809 8.999865,58.832085 
z"/>
<path fill="#27AC6E" opacity="1.000000" stroke="none" 
	d="
M52.985531,28.081129 
	C55.284206,25.001270 57.582878,21.921412 59.935043,18.503950 
	C65.585022,20.286924 68.532104,24.619961 69.754410,30.726398 
	C67.600792,32.490120 65.567375,33.534164 63.866001,34.971298 
	C62.677551,35.975163 61.943520,37.516998 60.652847,38.899254 
	C58.520817,39.960045 56.742462,40.940132 54.594246,41.957752 
	C50.426643,45.664192 46.628895,49.333096 42.467773,53.004642 
	C41.774952,53.023582 41.343758,52.909237 41.130787,53.075096 
	C34.060337,58.581669 26.979372,64.076660 20.043530,69.748909 
	C19.665798,70.057831 20.525772,71.880180 20.809607,72.998047 
	C20.113831,73.338760 19.418053,73.679474 18.119736,73.801285 
	C15.733320,73.386261 13.949444,73.190155 12.165569,72.994049 
	C12.766924,70.281036 13.368278,67.568024 14.254292,64.303513 
	C17.192204,62.169552 20.107208,60.900349 22.448233,58.944229 
	C28.755856,53.673672 34.564545,47.777798 41.080090,42.795532 
	C44.628498,40.082161 46.657951,37.396099 46.312309,33.135788 
	C48.511246,33.906776 50.416328,34.498280 52.321415,35.089783 
	C52.542786,32.753567 52.764160,30.417347 52.985531,28.081129 
z"/>
<path fill="#2EBB7A" opacity="1.000000" stroke="none" 
	d="
M20.989330,33.001640 
	C17.439730,36.466934 14.056102,40.133362 10.243307,43.279716 
	C9.038770,44.273705 6.686274,43.876583 4.512956,44.054909 
	C2.822248,34.859386 4.718272,26.402576 11.573539,20.164984 
	C17.459246,14.809592 24.578777,11.151170 33.553001,12.501141 
	C34.681572,17.125154 32.230316,19.485430 29.350584,21.926353 
	C27.530359,23.469215 26.421139,25.850897 24.642122,27.938721 
	C23.190599,29.681278 22.089964,31.341459 20.989330,33.001640 
z"/>
<path fill="#D5D8D9" opacity="1.000000" stroke="none" 
	d="
M77.995346,37.163494 
	C80.581360,38.184605 83.167381,39.205719 85.840271,40.911903 
	C83.925697,45.476295 81.924255,49.355614 79.597870,53.173363 
	C78.267906,53.440517 77.262878,53.769245 75.904968,54.137558 
	C74.051315,56.267605 72.731094,58.521038 71.017487,60.419361 
	C64.739342,67.374229 58.330326,74.210968 51.970581,81.092186 
	C50.321362,79.648849 48.672138,78.205521 47.233162,76.190491 
	C50.805534,72.063713 54.163589,68.504753 57.531315,64.954971 
	C59.548916,62.828308 60.608269,60.650555 58.334259,58.177303 
	C59.672508,57.022999 60.658985,55.910488 61.736042,54.348633 
	C61.884151,53.599178 61.941677,53.299057 62.319908,53.068882 
	C63.285015,54.227360 63.929420,55.315891 65.284012,57.604073 
	C68.331718,53.957642 70.322327,51.534641 72.358025,49.150124 
	C75.333786,45.664455 78.939941,42.487995 77.995346,37.163494 
z"/>
<path fill="#CACED1" opacity="1.000000" stroke="none" 
	d="
M91.051537,44.874065 
	C92.369392,46.637699 93.687248,48.401337 95.013779,50.914463 
	C94.056389,53.871758 93.513390,56.427032 92.041397,58.219330 
	C88.290741,62.786098 84.110054,66.998367 80.129822,71.378281 
	C76.071671,75.843948 72.047363,80.340370 68.008240,84.823334 
	C65.301132,84.869820 62.594032,84.916298 59.501091,84.558624 
	C64.514664,78.164925 69.812660,72.079193 75.359695,66.229637 
	C77.834816,63.619537 79.647209,61.237400 77.467560,57.822891 
	C78.926445,56.919453 80.018723,55.956108 81.486450,54.992607 
	C88.249580,54.638969 88.495598,48.707569 91.051537,44.874065 
z"/>
<path fill="#28B071" opacity="1.000000" stroke="none" 
	d="
M46.018463,32.956303 
	C46.657951,37.396099 44.628498,40.082161 41.080090,42.795532 
	C34.564545,47.777798 28.755856,53.673672 22.448233,58.944229 
	C20.107208,60.900349 17.192204,62.169552 14.212347,63.903236 
	C12.450967,62.429428 11.016194,60.804401 9.290643,59.005730 
	C11.657371,57.062809 14.528330,55.542431 16.933903,53.479393 
	C25.465729,46.162422 33.813961,38.631756 42.298931,31.259365 
	C43.550385,30.172010 45.164406,29.501940 46.668270,29.168961 
	C46.490063,30.784845 46.254261,31.870575 46.018463,32.956303 
z"/>
<path fill="#C3C8CB" opacity="1.000000" stroke="none" 
	d="
M68.463989,84.905319 
	C72.047363,80.340370 76.071671,75.843948 80.129822,71.378281 
	C84.110054,66.998367 88.290741,62.786098 92.041397,58.219330 
	C93.513390,56.427032 94.056389,53.871758 95.034866,51.272430 
	C95.699928,52.372780 96.833008,53.838741 96.915131,55.361378 
	C97.160896,59.918262 96.995491,64.497322 96.531067,69.533569 
	C90.570923,70.482178 82.385559,78.678497 80.947411,85.143768 
	C76.938187,85.091606 72.928963,85.039452 68.463989,84.905319 
z"/>
<path fill="#CFD3D5" opacity="1.000000" stroke="none" 
	d="
M77.100967,57.762985 
	C79.647209,61.237400 77.834816,63.619537 75.359695,66.229637 
	C69.812660,72.079193 64.514664,78.164925 59.055660,84.482544 
	C56.751030,83.783844 54.505993,82.757080 52.115768,81.411247 
	C58.330326,74.210968 64.739342,67.374229 71.017487,60.419361 
	C72.731094,58.521038 74.051315,56.267605 75.847015,54.462982 
	C76.461624,55.753544 76.781296,56.758266 77.100967,57.762985 
z"/>
<path fill="#24A86B" opacity="1.000000" stroke="none" 
	d="
M21.036533,72.680077 
	C20.525772,71.880180 19.665798,70.057831 20.043530,69.748909 
	C26.979372,64.076660 34.060337,58.581669 41.130787,53.075096 
	C41.343758,52.909237 41.774952,53.023582 42.517147,53.410370 
	C42.681786,56.540234 42.433678,59.267014 42.123436,62.335453 
	C42.335236,63.786213 42.609173,64.895309 42.853985,66.342056 
	C42.935596,67.117500 43.046333,67.555290 43.078777,68.305481 
	C42.665798,69.112076 42.331112,69.606262 41.996426,70.100456 
	C37.243221,70.067795 32.473289,69.789406 27.744213,70.111259 
	C25.543097,70.261070 23.421246,71.575562 21.036533,72.680077 
z"/>
<path fill="#2CB877" opacity="1.000000" stroke="none" 
	d="
M24.993011,27.856342 
	C26.421139,25.850897 27.530359,23.469215 29.350584,21.926353 
	C32.230316,19.485430 34.681572,17.125154 33.996475,12.566519 
	C38.354740,12.123645 42.714233,12.080795 47.534248,12.102152 
	C44.477219,20.674002 37.738277,25.900856 29.309824,29.686169 
	C27.502302,28.886932 26.247658,28.371637 24.993011,27.856342 
z"/>
<path fill="#DBDEDF" opacity="1.000000" stroke="none" 
	d="
M77.572159,37.089748 
	C78.939941,42.487995 75.333786,45.664455 72.358025,49.150124 
	C70.322327,51.534641 68.331718,53.957642 65.284012,57.604073 
	C63.929420,55.315891 63.285015,54.227360 62.369247,52.718575 
	C63.714127,50.047993 65.435333,47.863529 66.905022,45.521252 
	C67.714539,44.231110 68.101303,42.675716 68.678658,41.239906 
	C67.196465,40.968712 65.684914,40.366322 64.238129,40.494572 
	C61.129093,40.770161 58.053432,41.422253 54.964108,41.920219 
	C56.742462,40.940132 58.520817,39.960045 61.060608,38.971157 
	C65.216072,38.257008 68.610107,37.551662 72.004135,36.846321 
	C73.719078,36.902882 75.434021,36.959442 77.572159,37.089748 
z"/>
<path fill="#DBDDDF" opacity="1.000000" stroke="none" 
	d="
M42.001549,70.468445 
	C42.331112,69.606262 42.665798,69.112076 43.438549,68.294434 
	C45.727818,66.747116 47.652256,65.619316 49.413239,64.277077 
	C52.128025,62.207829 54.730835,59.991661 57.571579,57.869888 
	C57.762020,57.901962 57.982483,58.219093 57.982483,58.219093 
	C60.608269,60.650555 59.548916,62.828308 57.531315,64.954971 
	C54.163589,68.504753 50.805534,72.063713 47.176964,75.830612 
	C45.275906,74.307091 43.641289,72.571754 42.001549,70.468445 
z"/>
<path fill="#BDC2C5" opacity="1.000000" stroke="none" 
	d="
M80.972839,85.542374 
	C82.385559,78.678497 90.570923,70.482178 96.460464,69.996323 
	C94.354332,73.045586 91.859253,76.097961 89.789215,78.630348 
	C90.329475,82.019135 90.838776,85.213776 91.348083,88.408417 
	C90.934891,88.838562 90.521698,89.268715 90.108505,89.698860 
	C87.071754,88.446236 84.035011,87.193604 80.972839,85.542374 
z"/>
<path fill="#D0D4D6" opacity="1.000000" stroke="none" 
	d="
M90.928604,44.564911 
	C88.495598,48.707569 88.249580,54.638969 81.335594,54.769817 
	C80.513794,54.109772 80.218300,53.672356 79.922813,53.234936 
	C81.924255,49.355614 83.925697,45.476295 85.985321,41.241577 
	C87.630890,42.009369 89.218285,43.132561 90.928604,44.564911 
z"/>
<path fill="#23A568" opacity="1.000000" stroke="none" 
	d="
M71.999886,36.445381 
	C68.610107,37.551662 65.216072,38.257008 61.414280,38.890450 
	C61.943520,37.516998 62.677551,35.975163 63.866001,34.971298 
	C65.567375,33.534164 67.600792,32.490120 69.800346,31.114292 
	C70.737381,32.648380 71.366508,34.346409 71.999886,36.445381 
z"/>
<path fill="#24A86B" opacity="1.000000" stroke="none" 
	d="
M12.104137,73.396606 
	C13.949444,73.190155 15.733320,73.386261 17.789558,73.850021 
	C15.523923,76.878845 13.819247,76.788643 12.104137,73.396606 
z"/>
<path fill="#14633A" opacity="1.000000" stroke="none" 
	d="
M46.312309,33.135788 
	C46.254261,31.870575 46.490063,30.784845 46.872715,29.393505 
	C48.748104,28.737022 50.476643,28.386152 52.595352,28.058205 
	C52.764160,30.417347 52.542786,32.753567 52.321415,35.089783 
	C50.416328,34.498280 48.511246,33.906776 46.312309,33.135788 
z"/>
<path fill="#15633A" opacity="1.000000" stroke="none" 
	d="
M24.642124,27.938721 
	C26.247658,28.371637 27.502302,28.886932 28.949419,29.695724 
	C28.430561,31.612497 28.052601,34.235130 26.925219,34.611217 
	C25.448692,35.103767 23.380404,33.822395 21.277994,33.152855 
	C22.089964,31.341459 23.190599,29.681278 24.642124,27.938721 
z"/>
<path fill="#DFE2E2" opacity="1.000000" stroke="none" 
	d="
M57.381142,57.837814 
	C54.730835,59.991661 52.128025,62.207829 49.413239,64.277077 
	C47.652256,65.619316 45.727818,66.747116 43.516842,67.982040 
	C43.046333,67.555290 42.935596,67.117500 43.182648,66.277901 
	C46.466927,63.403091 44.226707,62.733177 42.185574,61.993790 
	C42.433678,59.267014 42.681786,56.540234 42.880516,53.407730 
	C46.628895,49.333096 50.426643,45.664192 54.594246,41.957752 
	C58.053432,41.422253 61.129093,40.770161 64.238129,40.494572 
	C65.684914,40.366322 67.196465,40.968712 68.678658,41.239906 
	C68.101303,42.675716 67.714539,44.231110 66.905022,45.521252 
	C65.435333,47.863529 63.714127,50.047993 62.048550,52.648628 
	C61.941677,53.299057 61.884151,53.599178 61.475189,54.073410 
	C60.212177,53.987247 59.300602,53.726971 58.389023,53.466694 
	C58.053059,54.923733 57.717102,56.380775 57.381142,57.837814 
z"/>
<path fill="#545455" opacity="1.000000" stroke="none" 
	d="
M57.571579,57.869888 
	C57.717102,56.380775 58.053059,54.923733 58.389023,53.466694 
	C59.300602,53.726971 60.212177,53.987247 61.384605,54.522751 
	C60.658985,55.910488 59.672508,57.022999 58.334259,58.177303 
	C57.982483,58.219093 57.762020,57.901962 57.571579,57.869888 
z"/>
<path fill="#4D4D4D" opacity="1.000000" stroke="none" 
	d="
M79.597870,53.173363 
	C80.218300,53.672356 80.513794,54.109772 80.960144,54.769981 
	C80.018723,55.956108 78.926445,56.919453 77.467560,57.822891 
	C76.781296,56.758266 76.461624,55.753544 76.199905,54.423401 
	C77.262878,53.769245 78.267906,53.440517 79.597870,53.173363 
z"/>
<path fill="#DBDDDF" opacity="1.000000" stroke="none" 
	d="
M42.123436,62.335453 
	C44.226707,62.733177 46.466927,63.403091 43.211769,65.940247 
	C42.609173,64.895309 42.335236,63.786213 42.123436,62.335453 
z"/>
</svg>